# xmcd
#
# Track frame offsets:
#	150
#	19058
#	35402
#	48451
#	61774
#	78608
#	95673
#	108281
#	122157
#	137878
#	159977
#	170464
#	183887
#	197551
#	208886
#	227787
#	240589
#	253620
#	268254
#	280955
#	296987
#	307970
#	317929
#	329961
#	341947
#
# Disc length: 4715 seconds
#
# Revision: 1
# Processed by: cddbd v1.5.2PL0 Copyright (c) Steve Scherf et al.
# Submitted via: EasyCDDAExtractor 11.1.0.1
#
DISCID=84126919
DTITLE=Teddy Edelmann - 100 Go'e Med Teddy Edelmann
DYEAR=2006
DGENRE=Country
TTITLE0=Sensous woman
TTITLE1=Beating heart in the city
TTITLE2=Come a little bit closer
TTITLE3=Armstrong
TTITLE4=Stoney
TTITLE5=In the early morning rain
TTITLE6=Lost my baby blues
TTITLE7=That was before my time
TTITLE8=Can the circle be unbroken
TTITLE9=Six days on the road
TTITLE10=Tiger by the tail
TTITLE11=King of the road
TTITLE12=Walk on by
TTITLE13=Baby i don't care
TTITLE14=Ready Teddy
TTITLE15=One night with you
TTITLE16=Lawdy Miss Clawdy
TTITLE17=That's allright
TTITLE18=Lonely blueboy
TTITLE19=King creole
TTITLE20=When my dreamboat comes home
TTITLE21=Memphis Tennessee
TTITLE22=Fall in love with you
TTITLE23=Kansas City
TTITLE24=Hound dog
EXTD=
EXTT0=
EXTT1=
EXTT2=
EXTT3=
EXTT4=
EXTT5=
EXTT6=
EXTT7=
EXTT8=
EXTT9=
EXTT10=
EXTT11=
EXTT12=
EXTT13=
EXTT14=
EXTT15=
EXTT16=
EXTT17=
EXTT18=
EXTT19=
EXTT20=
EXTT21=
EXTT22=
EXTT23=
EXTT24=
PLAYORDER=
